<?xml version="1.0" encoding="UTF-8"?>
<svg width="254px" height="80px" viewBox="0 0 254 80" version="1.1" xmlns="http://www.w3.org/2000/svg" xmlns:xlink="http://www.w3.org/1999/xlink">
    <!-- Generator: Sketch 50.2 (55047) - http://www.bohemiancoding.com/sketch -->
    <title>MainHero_Lockup</title>
    <desc>Created with Sketch.</desc>
    <defs></defs>
    <g id="Symbols" stroke="none" stroke-width="1" fill="none" fill-rule="evenodd">
        <g id="E3/mainfeature/pre-E3" transform="translate(-16.000000, -110.000000)">
            <g id="MainFeature_Content" transform="translate(16.000000, 110.000000)">
                <g id="MainHero_Lockup">
                    <path d="M189.869677,78.9354624 L145.280303,78.9354624 L145.280303,1.11776447 L189.869677,1.11776447 L189.869677,14.6373919 L161.696818,14.6373919 L161.696818,31.7232202 L187.910286,31.7232202 L187.910286,45.2428476 L161.696818,45.2428476 L161.696818,65.3093812 L189.869677,65.3093812 L189.869677,78.9354624 Z M251.72287,18.5229541 C251.72287,23.3843667 250.257755,27.5182797 247.327481,30.924817 C244.397206,34.3313544 240.284293,36.6733136 234.988616,37.9507651 L234.988616,38.2701264 C241.237514,39.0507912 245.968248,40.9580687 249.180958,43.992016 C252.393669,47.0259633 254,51.115521 254,56.2608117 C254,63.7480969 251.299245,69.5763819 245.897655,73.7458417 C240.496065,77.9153014 232.782145,80 222.755664,80 C214.353191,80 206.904051,78.5983729 200.408021,75.7950765 L200.408021,61.7964072 C203.408904,63.322252 206.709826,64.5642001 210.310887,65.5222888 C213.911947,66.4803774 217.477649,66.9594145 221.0081,66.9594145 C226.40969,66.9594145 230.39904,66.0368245 232.976269,64.1916168 C235.553498,62.346409 236.842094,59.3834757 236.842094,55.3027279 C236.842094,51.6477972 235.359326,49.0574483 232.393748,47.5316035 C229.428169,46.0057586 224.697435,45.2428476 218.201405,45.2428476 L212.323234,45.2428476 L212.323234,32.6280772 L218.307318,32.6280772 C224.309085,32.6280772 228.695605,31.838553 231.467009,30.259481 C234.238413,28.680409 235.624094,25.9747364 235.624094,22.1423819 C235.624094,16.2519111 231.95248,13.3067199 224.609142,13.3067199 C222.067217,13.3067199 219.4812,13.7325307 216.851014,14.584165 C214.220828,15.4357993 211.299424,16.9083949 208.086713,19.001996 L200.513934,7.66467066 C207.574836,2.55486467 215.994835,0 225.774185,0 C233.788309,0 240.116547,1.63227465 244.759091,4.89687292 C249.401634,8.16147119 251.72287,12.7034528 251.72287,18.5229541 Z" id="E3" fill="#F8E71C"></path>
                    <g id="GetYourThumbsReadFor" transform="translate(0.000000, 3.855422)" fill="#FFFFFF">
                        <path d="M11.7403405,10.3168298 L18.6537874,10.3168298 L18.6537874,20.1546498 C17.5780478,20.4959543 16.4837774,20.7542348 15.3709434,20.9294992 C14.2581093,21.1047637 12.9690959,21.1923946 11.5038644,21.1923946 C8.42502356,21.1923946 6.02782951,20.2814944 4.31221036,18.4596668 C2.59659121,16.6378392 1.7387945,14.0850127 1.7387945,10.8011107 C1.7387945,8.69793753 2.16305612,6.85538253 3.01159207,5.27339044 C3.86012803,3.69139834 5.08190875,2.48301434 6.67697088,1.64820218 C8.27203301,0.813390028 10.1406388,0.395990211 12.2828443,0.395990211 C14.4528707,0.395990211 16.4744889,0.792635341 18.3477596,1.5859375 L17.4296761,3.66142696 C15.5934999,2.88657369 13.8269024,2.49915286 12.1298304,2.49915286 C9.65377468,2.49915286 7.72025454,3.23248514 6.32921198,4.69917169 C4.93816943,6.16585824 4.24265858,8.19981757 4.24265858,10.8011107 C4.24265858,13.531546 4.91266736,15.6024026 6.25270502,17.0137425 C7.59274268,18.4250824 9.56103838,19.1307417 12.1576511,19.1307417 C13.5672409,19.1307417 14.9443524,18.9693164 16.2890269,18.6464608 L16.2890269,12.4199925 L11.7403405,12.4199925 L11.7403405,10.3168298 Z M34.8732625,20.9156627 L23.5363224,20.9156627 L23.5363224,0.686558735 L34.8732625,0.686558735 L34.8732625,2.77588479 L25.9010829,2.77588479 L25.9010829,9.29292169 L34.3307586,9.29292169 L34.3307586,11.3684111 L25.9010829,11.3684111 L25.9010829,18.8125 L34.8732625,18.8125 L34.8732625,20.9156627 Z M45.639878,20.9156627 L43.2751175,20.9156627 L43.2751175,2.77588479 L36.8346227,2.77588479 L36.8346227,0.686558735 L52.0803729,0.686558735 L52.0803729,2.77588479 L45.639878,2.77588479 L45.639878,20.9156627 Z M67.715613,10.8011107 L73.1406519,0.686558735 L75.7001574,0.686558735 L68.9119036,13.0703125 L68.9119036,20.9156627 L66.5193224,20.9156627 L66.5193224,13.1810053 L59.744979,0.686558735 L62.3323052,0.686558735 L67.715613,10.8011107 Z M95.5780561,10.7734375 C95.5780561,14.0112172 94.7550349,16.5571255 93.1089679,18.4112387 C91.4629009,20.2653519 89.1746702,21.1923946 86.2442072,21.1923946 C83.2488289,21.1923946 80.9374145,20.2814944 79.3098947,18.4596668 C77.682375,16.6378392 76.8686273,14.066564 76.8686273,10.7457643 C76.8686273,7.4526379 77.6846933,4.8998114 79.3168499,3.08720821 C80.9490065,1.27460502 83.267376,0.368317018 86.2720279,0.368317018 C89.1932173,0.368317018 91.4744929,1.29074755 93.1159231,3.1356363 C94.7573533,4.98052504 95.5780561,7.52643331 95.5780561,10.7734375 Z M79.3724913,10.7734375 C79.3724913,13.5130973 79.9590388,15.5908721 81.1321514,17.0068242 C82.3052639,18.4227763 84.0092655,19.1307417 86.2442072,19.1307417 C88.4976961,19.1307417 90.1993793,18.4250824 91.3493079,17.0137425 C92.4992364,15.6024026 93.074192,13.5223217 93.074192,10.7734375 C93.074192,8.0522266 92.5015547,5.98828828 91.356263,4.58156062 C90.2109713,3.17483295 88.5162432,2.47147967 86.2720279,2.47147967 C84.018539,2.47147967 82.3052639,3.1794451 81.1321514,4.59539721 C79.9590388,6.01134932 79.3724913,8.07067549 79.3724913,10.7734375 Z M115.469865,0.686558735 L115.469865,13.7759789 C115.469865,16.0820898 114.769718,17.8946658 113.369401,19.2137613 C111.969085,20.5328567 110.044839,21.1923946 107.596604,21.1923946 C105.148369,21.1923946 103.254261,20.5282446 101.914223,19.1999247 C100.574186,17.8716048 99.9041768,16.0451923 99.9041768,13.7206325 L99.9041768,0.686558735 L102.268937,0.686558735 L102.268937,13.8866717 C102.268937,15.5747449 102.732611,16.8707598 103.659973,17.7747553 C104.587335,18.6787508 105.950536,19.1307417 107.749618,19.1307417 C109.465237,19.1307417 110.786707,18.6764447 111.714069,17.767837 C112.641431,16.8592293 113.105105,15.5562961 113.105105,13.8589985 L113.105105,0.686558735 L115.469865,0.686558735 Z M123.217933,12.503012 L123.217933,20.9156627 L120.853173,20.9156627 L120.853173,0.686558735 L126.431226,0.686558735 C128.925829,0.686558735 130.768932,1.16161046 131.960592,2.11172816 C133.152252,3.06184587 133.748073,4.49161319 133.748073,6.40107304 C133.748073,9.07616172 132.384872,10.8841256 129.658428,11.8250188 L135.18084,20.9156627 L132.384858,20.9156627 L127.460592,12.503012 L123.217933,12.503012 Z M123.217933,10.482869 L126.459046,10.482869 C128.128297,10.482869 129.352397,10.1531001 130.13138,9.49355233 C130.910364,8.83400461 131.29985,7.84469786 131.29985,6.52560241 C131.29985,5.18805807 130.903409,4.22411816 130.110515,3.63375377 C129.317621,3.04338937 128.044836,2.7482116 126.292122,2.7482116 L123.217933,2.7482116 L123.217933,10.482869 Z" id="Get-your"></path>
                        <path d="M10.5649154,49.9277108 L7.80602811,49.9277108 L7.80602811,28.7646367 L0.292117476,28.7646367 L0.292117476,26.3270896 L18.078826,26.3270896 L18.078826,28.7646367 L10.5649154,28.7646367 L10.5649154,49.9277108 Z M39.6630617,49.9277108 L36.9041745,49.9277108 L36.9041745,38.8215361 L24.408038,38.8215361 L24.408038,49.9277108 L21.6491507,49.9277108 L21.6491507,26.3270896 L24.408038,26.3270896 L24.408038,36.3678464 L36.9041745,36.3678464 L36.9041745,26.3270896 L39.6630617,26.3270896 L39.6630617,49.9277108 Z M64.0873285,26.3270896 L64.0873285,41.5980798 C64.0873285,44.2885426 63.2704896,46.4032146 61.6367874,47.9421593 C60.0030852,49.481104 57.7581308,50.2505648 54.9018567,50.2505648 C52.0455827,50.2505648 49.8357902,49.4757231 48.2724129,47.9260166 C46.7090356,46.37631 45.9273587,44.2454955 45.9273587,41.533509 L45.9273587,26.3270896 L48.686246,26.3270896 L48.686246,41.7272214 C48.686246,43.6966401 49.2271989,45.2086575 50.3091209,46.2633189 C51.3910429,47.3179803 52.9814443,47.8453031 55.080373,47.8453031 C57.0819287,47.8453031 58.6236444,47.3152899 59.7055664,46.2552476 C60.7874883,45.1952052 61.3284412,43.6751166 61.3284412,41.694936 L61.3284412,26.3270896 L64.0873285,26.3270896 Z M80.8678546,49.9277108 L72.8183953,29.0067771 L72.6885653,29.0067771 C72.8400344,30.6641022 72.9157678,32.6334914 72.9157678,34.9150038 L72.9157678,49.9277108 L70.3678542,49.9277108 L70.3678542,26.3270896 L74.5224139,26.3270896 L82.0363245,45.7951807 L82.1661545,45.7951807 L89.7449801,26.3270896 L93.8670823,26.3270896 L93.8670823,49.9277108 L91.108195,49.9277108 L91.108195,34.7212914 C91.108195,32.9778716 91.1839284,31.0838142 91.3353975,29.0390625 L91.2055675,29.0390625 L83.0911932,49.9277108 L80.8678546,49.9277108 Z M100.374811,26.3270896 L107.077284,26.3270896 C110.225677,26.3270896 112.503088,26.7952231 113.909587,27.7315041 C115.316085,28.6677852 116.019324,30.1475175 116.019324,32.1707455 C116.019324,33.5697861 115.627133,34.7239773 114.84274,35.6333537 C114.058347,36.5427301 112.914231,37.1319326 111.41036,37.4009789 L111.41036,37.5624059 C115.01316,38.1758314 116.814533,40.0591271 116.814533,43.2123494 C116.814533,45.3216722 116.09777,46.9682107 114.664224,48.1520143 C113.230677,49.3358179 111.226447,49.9277108 108.651472,49.9277108 L100.374811,49.9277108 L100.374811,26.3270896 Z M103.133698,36.4324172 L107.677747,36.4324172 C109.625207,36.4324172 111.026275,36.1283994 111.880993,35.5203549 C112.735712,34.9123103 113.163064,33.8872593 113.163064,32.4451713 C113.163064,31.1214636 112.687026,30.1663637 111.734935,29.5798428 C110.782843,28.9933219 109.268175,28.7000659 107.190885,28.7000659 L103.133698,28.7000659 L103.133698,36.4324172 Z M103.133698,38.7569654 L103.133698,47.58702 L108.083466,47.58702 C109.998468,47.58702 111.440107,47.2184321 112.408428,46.4812453 C113.376748,45.7440585 113.860901,44.5898673 113.860901,43.018637 C113.860901,41.5550253 113.365929,40.4788564 112.37597,39.7900979 C111.386012,39.1013394 109.879458,38.7569654 107.856264,38.7569654 L103.133698,38.7569654 Z M135.299078,43.6482022 C135.299078,45.7252394 134.541744,47.3448737 133.027053,48.5071536 C131.512362,49.6694335 129.456741,50.2505648 126.860128,50.2505648 C124.047131,50.2505648 121.88332,49.8900482 120.368629,49.1690041 L120.368629,46.521602 C121.342359,46.9305524 122.402626,47.2534031 123.549464,47.4901638 C124.696301,47.7269245 125.832302,47.8453031 126.957501,47.8453031 C128.796768,47.8453031 130.181608,47.4982386 131.11206,46.8040992 C132.042513,46.1099598 132.507733,45.1440982 132.507733,43.9064853 C132.507733,43.0885846 132.342742,42.4186695 132.012756,41.8967197 C131.68277,41.3747699 131.130998,40.8931843 130.357424,40.4519484 C129.583849,40.0107125 128.407277,39.510294 126.827671,38.9506777 C124.62055,38.1650626 123.043672,37.2341764 122.096991,36.1579913 C121.150309,35.0818062 120.676975,33.6774058 120.676975,31.9447477 C120.676975,30.1259949 121.363985,28.6785477 122.738026,27.6023626 C124.112067,26.5261775 125.929669,25.988093 128.190886,25.988093 C130.549476,25.988093 132.718697,26.4185606 134.698614,27.2795087 L133.83849,29.6686276 C131.880211,28.850727 129.976057,28.4417828 128.125971,28.4417828 C126.665376,28.4417828 125.523965,28.7538718 124.701705,29.3780591 C123.879444,30.0022465 123.46832,30.8685625 123.46832,31.9770331 C123.46832,32.7949338 123.619787,33.464849 123.922725,33.9867988 C124.225663,34.5087485 124.736863,34.9876437 125.456342,35.4234987 C126.17582,35.8593536 127.276659,36.3409393 128.758892,36.86827 C131.247313,37.7507417 132.959428,38.6977704 133.895291,39.7093844 C134.831153,40.7209984 135.299078,42.0339245 135.299078,43.6482022 Z" id="thumbs"></path>
                        <path d="M5.89004217,63.9000377 L7.0823584,63.9000377 C8.25083414,63.9000377 9.11326759,63.7063272 9.66968461,63.3189006 C10.2261016,62.931474 10.504306,62.3226698 10.504306,61.4924699 C10.504306,60.6701766 10.2201401,60.0850921 9.65179987,59.7371988 C9.08345963,59.3893055 8.20314161,59.2153614 7.01081942,59.2153614 L5.89004217,59.2153614 L5.89004217,63.9000377 Z M5.89004217,66.8887425 L5.89004217,73.5421687 L2.19386186,73.5421687 L2.19386186,56.2029367 L7.273129,56.2029367 C9.64187575,56.2029367 11.3945631,56.6318669 12.5312436,57.4897402 C13.6679241,58.3476135 14.2362558,59.6502172 14.2362558,61.3975904 C14.2362558,62.4175503 13.9540771,63.3248266 13.3897112,64.1194465 C12.8253454,64.9140665 12.0265015,65.5367071 10.9931556,65.987387 C13.6162644,69.8853734 15.325234,72.4036088 16.1201154,73.5421687 L12.0185476,73.5421687 L7.85736395,66.8887425 L5.89004217,66.8887425 Z M28.3532799,73.5421687 L18.3139773,73.5421687 L18.3139773,56.2029367 L28.3532799,56.2029367 L28.3532799,59.2153614 L22.0101576,59.2153614 L22.0101576,63.0224021 L27.9121229,63.0224021 L27.9121229,66.0348268 L22.0101576,66.0348268 L22.0101576,70.5060241 L28.3532799,70.5060241 L28.3532799,73.5421687 Z M42.6610747,73.5421687 L41.3972195,69.4149096 L35.042174,69.4149096 L33.7783188,73.5421687 L29.7959826,73.5421687 L35.9483343,56.1317771 L40.4672128,56.1317771 L46.6434109,73.5421687 L42.6610747,73.5421687 Z M40.5149055,66.3313253 C39.3464297,62.5914723 38.6886752,60.4764708 38.5416221,59.9862575 C38.394569,59.4960442 38.2892488,59.1086234 38.2256583,58.8239834 C37.9633474,59.8360367 37.2121957,62.338459 35.9721806,66.3313253 L40.5149055,66.3313253 Z M63.3000686,64.7065136 C63.3000686,67.56082 62.4833401,69.7469804 60.8498587,71.2650602 C59.2163773,72.7831401 56.857602,73.5421687 53.7734619,73.5421687 L48.8372727,73.5421687 L48.8372727,56.2029367 L54.3100042,56.2029367 C57.1556798,56.2029367 59.3654172,56.9501055 60.9392824,58.4444654 C62.5131477,59.9388252 63.3000686,62.0261538 63.3000686,64.7065136 Z M59.4608103,64.8013931 C59.4608103,61.0773534 57.8074817,59.2153614 54.5007748,59.2153614 L52.533453,59.2153614 L52.533453,70.5060241 L54.1192336,70.5060241 C57.6803026,70.5060241 59.4608103,68.6044994 59.4608103,64.8013931 Z M72.0993623,63.3426205 L75.7359268,56.2029367 L79.7182631,56.2029367 L73.9355293,66.793863 L73.9355293,73.5421687 L70.2631954,73.5421687 L70.2631954,66.9124623 L64.4804616,56.2029367 L68.4866442,56.2029367 L72.0993623,63.3426205 Z M91.8918117,73.5421687 L88.2552472,73.5421687 L88.2552472,56.2029367 L98.2468572,56.2029367 L98.2468572,59.2153614 L91.8918117,59.2153614 L91.8918117,63.6865587 L97.8057002,63.6865587 L97.8057002,66.6871235 L91.8918117,66.6871235 L91.8918117,73.5421687 Z M117.478918,64.8488328 C117.478918,67.7189526 116.763535,69.9248793 115.332749,71.4666792 C113.901962,73.0084791 111.851199,73.7793675 109.180397,73.7793675 C106.509595,73.7793675 104.458832,73.0084791 103.028045,71.4666792 C101.597259,69.9248793 100.881876,67.7110461 100.881876,64.825113 C100.881876,61.9391798 101.599246,59.7352297 103.034007,58.2131965 C104.468768,56.6911633 106.525493,55.9301581 109.204243,55.9301581 C111.882994,55.9301581 113.93177,56.6970932 115.350634,58.2309864 C116.769497,59.7648797 117.478918,61.9708064 117.478918,64.8488328 Z M104.756904,64.8488328 C104.756904,66.785966 105.126518,68.244724 105.865758,69.2251506 C106.604998,70.2055772 107.709866,70.6957831 109.180397,70.6957831 C112.129407,70.6957831 113.60389,68.7468192 113.60389,64.8488328 C113.60389,60.9429398 112.137356,58.9900226 109.204243,58.9900226 C107.733713,58.9900226 106.62487,59.4822052 105.877681,60.4665851 C105.130493,61.450965 104.756904,62.9116997 104.756904,64.8488328 Z M124.787816,63.9000377 L125.980133,63.9000377 C127.148608,63.9000377 128.011042,63.7063272 128.567459,63.3189006 C129.123876,62.931474 129.40208,62.3226698 129.40208,61.4924699 C129.40208,60.6701766 129.117914,60.0850921 128.549574,59.7371988 C127.981234,59.3893055 127.100916,59.2153614 125.908594,59.2153614 L124.787816,59.2153614 L124.787816,63.9000377 Z M124.787816,66.8887425 L124.787816,73.5421687 L121.091636,73.5421687 L121.091636,56.2029367 L126.170903,56.2029367 C128.53965,56.2029367 130.292337,56.6318669 131.429018,57.4897402 C132.565698,58.3476135 133.13403,59.6502172 133.13403,61.3975904 C133.13403,62.4175503 132.851851,63.3248266 132.287486,64.1194465 C131.72312,64.9140665 130.924276,65.5367071 129.89093,65.987387 C132.514039,69.8853734 134.223008,72.4036088 135.01789,73.5421687 L130.916322,73.5421687 L126.755138,66.8887425 L124.787816,66.8887425 Z" id="READY-FOR"></path>
                    </g>
                </g>
            </g>
        </g>
    </g>
</svg>